<?xml version="1.0" encoding="utf-8"?>
<!-- Generator: Adobe Illustrator 27.1.1, SVG Export Plug-In . SVG Version: 6.00 Build 0)  -->
<svg version="1.1" id="Ebene_2_00000040534001442765264620000006374176831632571022_"
	 xmlns="http://www.w3.org/2000/svg" xmlns:xlink="http://www.w3.org/1999/xlink" x="0px" y="0px" viewBox="0 0 1085.7 571.4"
	 style="enable-background:new 0 0 1085.7 571.4;" xml:space="preserve">
<style type="text/css">
	.st0{fill:#1F447A;}
</style>
<g id="Ebene_1-2">
	<g>
		<path class="st0" d="M285.7,0C127.9,0,0,127.9,0,285.7s127.9,285.7,285.7,285.7c103,0,193.4-54.6,243.6-136.4
			c-6.8-1.7-12.8-5.6-18.1-11.6c-7.3-8.5-11-18.6-11-30.6s3.7-21.7,11-30s16.2-12.5,26.6-12.5c8.6,0,15.9,2.5,22,7.6
			c0.7,0.6,1.3,1.1,1.8,1.7c6.3-23.6,9.7-48.4,9.7-74C571.4,127.9,443.5,0,285.7,0z M199.5,413.5c8.4,9.9,18.6,14.9,30.6,14.9
			c10.2,0,18.6-3,25.2-8.9c6.7-6,10.5-13.9,11.4-23.9h7.5c-1,12-5.5,21.7-13.6,28.9c-7.9,7.2-18.1,10.8-30.4,10.8
			c-14,0-26-5.6-35.8-17c-9.9-11.3-14.9-25-14.9-41s5-29.8,14.9-41.2c9.8-11.3,21.7-17,35.8-17c11.6,0,21.3,3.1,29.2,9.3
			c8,6.1,12.9,14.3,14.7,24.6h-7.5c-1.4-7.7-5.5-14.1-12.5-19.2c-6.8-5.1-14.9-7.6-24-7.6c-11.9,0-22.1,5-30.6,14.9
			c-8.4,10.1-12.7,22.1-12.7,36.1S191,403.5,199.5,413.5L199.5,413.5z M351.1,432.5h-7.5v-52.4c0-6.5-1.9-11.9-5.8-16.4
			c-3.9-4.6-8.5-6.9-14-6.9c-6.1,0-11.6,2.2-16.6,6.7c-5.1,4.4-8.6,10.1-10.4,17.1v51.8h-7.5V322h7.5v46c2.5-5.3,6.2-9.6,11.2-12.9
			c4.8-3.2,10.1-4.8,15.8-4.8c7.5,0,13.9,2.8,19.2,8.4c5.3,5.5,8,12.1,8,19.9V432.5L351.1,432.5z M434.2,432.5h-7.5v-14
			c-2.2,4.8-5.8,8.8-10.8,11.7c-4.8,2.9-10.2,4.3-16.2,4.3c-7.5,0-13.9-2.4-19.2-7.3c-5.3-4.8-8-10.7-8-17.5v-56.6h7.5v56.6
			c0,5.1,1.9,9.5,5.8,13.2c3.9,3.6,8.5,5.4,14,5.4c6.5,0,12.2-2.5,17.3-7.5c5.1-5,8.3-11.2,9.7-18.8v-49h7.5L434.2,432.5
			L434.2,432.5z M492.6,360.4c-0.4,0-0.8-0.1-1.3-0.4c-0.4-0.2-0.6-0.4-0.8-0.4c-5.8,0-11.1,2.5-15.8,7.5c-4.7,5-7.8,11.2-9.1,18.8
			v46.6h-7.5v-79.4h7.5V371c2.1-5.7,5.2-10.4,9.3-14c4.2-3.5,8.7-5.2,13.4-5.2h4.3L492.6,360.4L492.6,360.4z"/>
		<path class="st0" d="M554.6,363.2c-4.6-3.7-10.2-5.6-16.8-5.6c-8.3,0-15.5,3.4-21.4,10.2c-5.8,7-8.8,15.3-8.8,25
			s2.9,18.5,8.8,25.5c4.8,5.7,10.4,9.1,16.7,10.2c10.9-18.8,19.7-39,26.1-60.2C558.1,366.5,556.6,364.8,554.6,363.2L554.6,363.2z"/>
		<path class="st0" d="M537.9,436c8.6,0,15.9-2.6,22-7.8c6.1-5.2,9.1-11.5,9.1-18.8h-7.8c0,5.3-2.3,9.9-6.9,13.8
			c-4.5,3.9-9.9,5.8-16.4,5.8c-1.6,0-3.2-0.1-4.7-0.4c-1.2,2.2-2.5,4.3-3.8,6.4C532,435.7,534.9,436,537.9,436z"/>
		<path class="st0" d="M561.5,376.6h7.5c0-6.4-2.4-12.1-7.3-16.9c-0.8,2.9-1.6,5.8-2.5,8.7C560.7,370.9,561.5,373.6,561.5,376.6
			L561.5,376.6z"/>
		<path class="st0" d="M619.7,350.3c-5.7,0-11,1.6-15.8,4.8c-5,3.2-8.7,7.5-11.2,12.9v-46h-7.5v110.5h7.5v-51.8
			c1.9-7.1,5.3-12.8,10.4-17.1c5-4.5,10.5-6.7,16.6-6.7c5.5,0,10.1,2.3,14,6.9c3.8,4.5,5.8,9.9,5.8,16.4v52.4h7.5v-53.9
			c0-7.8-2.7-14.5-8-19.9C633.5,353.1,627.1,350.3,619.7,350.3L619.7,350.3z"/>
		<path class="st0" d="M802.8,382.2h-7.1c0,8.5-2.4,16-7.1,22.7L758.8,368c6.6-3.9,11.7-8.3,15.5-13.2c3.8-5.1,5.8-10.1,5.8-15.1
			c0-5.5-1.9-10.1-5.8-14c-3.8-3.9-8.5-5.8-14-5.8c-7.3,0-13.2,1.8-17.5,5.4c-4.5,3.6-6.7,8.4-6.7,14.4c0,3.7,1.1,7.9,3.3,12.5
			c2.2,4.6,5.4,9.4,9.5,14.4c-8.7,4-15.6,9.1-20.7,15.3c-5.1,6.2-7.6,12.5-7.6,18.8c0,9.2,3.5,17,10.4,23.5c6.8,6.5,15.2,9.7,25,9.7
			c7,0,13.2-1.5,18.8-4.5c5.6-2.9,10.4-7.2,14.5-13l12.7,16.2h7.8l-16.4-22.7C799.7,401,802.8,391.8,802.8,382.2L802.8,382.2z
			 M746.4,351.8c-2-4-3-7.8-3-11.4c0-4.1,1.5-7.6,4.5-10.6c3.1-2.9,6.8-4.3,11-4.3c3.8,0,7.2,1.5,10.1,4.7c2.7,3,4.1,6.6,4.1,11
			c0,4.1-1.7,8.1-5,12.1c-3.2,4-7.6,7.3-13.2,9.9C751.1,359.6,748.3,355.8,746.4,351.8L746.4,351.8z M772.6,423
			c-4.8,3.1-9.9,4.7-15.1,4.7c-8.2,0-15.2-2.6-21.1-7.8c-5.8-5.3-8.8-11.7-8.8-19.2c0-5.2,2.3-10.4,6.9-15.6
			c4.6-5.2,10.8-9.6,18.6-13.2l31.1,38.8C781.2,415.9,777.3,420,772.6,423L772.6,423z"/>
		<path class="st0" d="M927.3,326.3c9.2,0,17.2,2.5,24,7.6c7,5.1,11.1,11.5,12.5,19.2h7.5c-1.9-10.3-6.8-18.5-14.7-24.6
			c-8-6.2-17.7-9.3-29.2-9.3c-14,0-26,5.6-35.8,17c-9.9,11.4-14.9,25.2-14.9,41.2s5,29.7,14.9,41c9.8,11.3,21.7,17,35.8,17
			c12.3,0,22.4-3.6,30.4-10.8c8.1-7.2,12.6-16.8,13.6-28.9h-7.5c-0.9,9.9-4.7,17.9-11.4,23.9c-6.6,6-15,8.9-25.2,8.9
			c-11.9,0-22.1-5-30.6-14.9c-8.5-10.1-12.7-22.1-12.7-36.1s4.2-26.1,12.7-36.1C905.2,331.2,915.4,326.3,927.3,326.3L927.3,326.3z"
			/>
		<path class="st0" d="M1019,350.3c-11.3,0-20.3,3.9-27,11.5c-6.8,7.8-10.2,18.1-10.2,30.9s3.4,22.4,10.2,29.8
			c6.7,7.5,15.7,11.2,27,11.2c11.3,0,20.2-3.7,27-11.2c6.7-7.5,10.1-17.4,10.1-29.8s-3.3-23.1-10.1-30.9
			C1039.2,354.2,1030.2,350.3,1019,350.3z M1040.6,418.2c-5.5,6.3-12.7,9.5-21.6,9.5s-16.3-3.2-21.6-9.5c-5.5-6.3-8.2-14.8-8.2-25.3
			s2.7-19.6,8.2-26.1c5.3-6.6,12.5-9.9,21.6-9.9c9.1,0,16.2,3.3,21.6,9.9c5.3,6.5,8,15.2,8,26.1S1045.9,411.8,1040.6,418.2z"/>
		<rect x="1074.9" y="421.1" class="st0" width="10.8" height="11.4"/>
	</g>
</g>
</svg>
