<?xml version="1.0" encoding="UTF-8"?><svg id="Ebene_2" xmlns="http://www.w3.org/2000/svg" viewBox="0 0 1085.67 571.38"><defs><style>.cls-1{fill:#fff;}</style></defs><g id="Ebene_1-2"><g><path class="cls-1" d="m285.69,0C127.91,0,0,127.91,0,285.69s127.91,285.69,285.69,285.69c103.05,0,193.35-54.57,243.6-136.38-6.82-1.72-12.85-5.59-18.08-11.62-7.33-8.45-10.99-18.63-10.99-30.56s3.66-21.68,10.99-30c7.33-8.32,16.21-12.48,26.65-12.48,8.57,0,15.9,2.55,21.99,7.64.65.56,1.26,1.13,1.84,1.71,6.31-23.6,9.7-48.4,9.7-74C571.38,127.91,443.47,0,285.69,0Zm-86.22,413.5c8.45,9.94,18.63,14.91,30.56,14.91,10.18,0,18.57-2.98,25.16-8.94,6.71-5.96,10.5-13.91,11.37-23.85h7.45c-1,12.05-5.53,21.68-13.6,28.88-7.95,7.21-18.07,10.81-30.37,10.81-14.04,0-25.96-5.65-35.78-16.96-9.94-11.3-14.91-24.97-14.91-40.99s4.97-29.75,14.91-41.18c9.81-11.3,21.74-16.96,35.78-16.96,11.55,0,21.3,3.11,29.25,9.32,7.95,6.09,12.86,14.29,14.72,24.6h-7.45c-1.37-7.7-5.53-14.1-12.48-19.19-6.83-5.09-14.85-7.64-24.04-7.64-11.93,0-22.11,4.97-30.56,14.91-8.45,10.06-12.67,22.11-12.67,36.15s4.22,26.09,12.67,36.15Zm151.68,19.01h-7.45v-52.36c0-6.46-1.93-11.93-5.78-16.4-3.85-4.59-8.51-6.89-13.98-6.89-6.09,0-11.62,2.24-16.58,6.71-5.09,4.35-8.57,10.06-10.43,17.14v51.8h-7.45v-110.5h7.45v46.02c2.48-5.34,6.21-9.62,11.18-12.86,4.84-3.23,10.12-4.84,15.84-4.84,7.45,0,13.85,2.79,19.19,8.38,5.34,5.47,8.01,12.11,8.01,19.94v53.85Zm83.1,0h-7.45v-13.98c-2.24,4.84-5.84,8.76-10.81,11.74-4.84,2.86-10.25,4.29-16.21,4.29-7.45,0-13.85-2.42-19.19-7.27-5.34-4.84-8.01-10.68-8.01-17.52v-56.65h7.45v56.65c0,5.1,1.92,9.5,5.78,13.23,3.85,3.6,8.51,5.4,13.98,5.4,6.46,0,12.23-2.48,17.33-7.45,5.09-4.97,8.32-11.24,9.69-18.82v-49.01h7.45v79.38Zm58.32-72.11c-.37,0-.81-.12-1.3-.37-.37-.25-.62-.37-.75-.37-5.84,0-11.12,2.49-15.84,7.45-4.72,4.97-7.77,11.24-9.13,18.82v46.58h-7.45v-79.38h7.45v17.89c2.11-5.71,5.22-10.37,9.32-13.97,4.22-3.48,8.69-5.22,13.42-5.22h4.29v8.57Z"/><path class="cls-1" d="m554.62,363.19c-4.6-3.73-10.19-5.59-16.77-5.59-8.32,0-15.47,3.42-21.43,10.25-5.84,6.96-8.76,15.28-8.76,24.97s2.92,18.45,8.76,25.53c4.8,5.7,10.37,9.11,16.71,10.22,10.89-18.81,19.68-38.99,26.08-60.2-1.12-1.85-2.64-3.58-4.59-5.17Z"/><path class="cls-1" d="m537.86,436.05c8.57,0,15.9-2.61,21.99-7.83,6.08-5.22,9.13-11.49,9.13-18.82h-7.83c0,5.34-2.3,9.94-6.89,13.79-4.47,3.85-9.94,5.78-16.4,5.78-1.62,0-3.19-.14-4.72-.41-1.25,2.17-2.54,4.31-3.85,6.44,2.73.69,5.58,1.05,8.57,1.05Z"/><path class="cls-1" d="m561.52,376.61h7.45c0-6.43-2.44-12.07-7.29-16.92-.78,2.91-1.6,5.8-2.47,8.67,1.52,2.51,2.3,5.25,2.3,8.25Z"/><path class="cls-1" d="m619.66,350.34c-5.72,0-10.99,1.62-15.84,4.84-4.97,3.23-8.7,7.52-11.18,12.86v-46.02h-7.45v110.5h7.45v-51.8c1.86-7.08,5.34-12.79,10.43-17.14,4.97-4.47,10.5-6.71,16.58-6.71,5.46,0,10.12,2.3,13.97,6.89,3.85,4.47,5.78,9.94,5.78,16.4v52.36h7.45v-53.85c0-7.83-2.67-14.47-8.01-19.94-5.34-5.59-11.74-8.38-19.19-8.38Z"/><path class="cls-1" d="m802.82,382.2h-7.08c0,8.45-2.36,16.02-7.08,22.73l-29.81-36.89c6.58-3.85,11.74-8.26,15.47-13.23,3.85-5.09,5.78-10.12,5.78-15.09,0-5.46-1.93-10.12-5.78-13.98-3.85-3.85-8.51-5.78-13.98-5.78-7.33,0-13.17,1.8-17.52,5.4-4.47,3.6-6.71,8.39-6.71,14.35,0,3.73,1.12,7.89,3.35,12.48,2.24,4.6,5.4,9.38,9.5,14.35-8.7,3.98-15.59,9.07-20.68,15.28-5.09,6.21-7.64,12.48-7.64,18.82,0,9.19,3.48,17.02,10.44,23.48,6.83,6.46,15.15,9.69,24.97,9.69,6.96,0,13.23-1.49,18.82-4.47,5.59-2.86,10.44-7.2,14.53-13.04l12.67,16.21h7.83l-16.4-22.73c6.21-8.82,9.32-18.01,9.32-27.58Zm-56.46-30.37c-1.99-3.97-2.98-7.76-2.98-11.37,0-4.1,1.49-7.64,4.47-10.62,3.1-2.86,6.77-4.29,10.99-4.29,3.85,0,7.2,1.55,10.06,4.66,2.73,2.98,4.1,6.65,4.1,10.99,0,4.1-1.68,8.14-5.03,12.11-3.23,3.98-7.64,7.27-13.23,9.88-3.6-3.6-6.4-7.39-8.38-11.37Zm26.27,71.18c-4.84,3.11-9.88,4.66-15.09,4.66-8.2,0-15.22-2.61-21.06-7.83-5.84-5.34-8.76-11.74-8.76-19.19,0-5.22,2.3-10.44,6.89-15.65,4.59-5.22,10.81-9.63,18.63-13.23l31.12,38.76c-3.11,5.34-7.02,9.5-11.74,12.49Z"/><path class="cls-1" d="m927.29,326.3c9.19,0,17.2,2.55,24.04,7.64,6.96,5.09,11.12,11.49,12.48,19.19h7.45c-1.86-10.31-6.77-18.51-14.72-24.6-7.95-6.21-17.7-9.32-29.25-9.32-14.04,0-25.96,5.65-35.78,16.96-9.94,11.43-14.91,25.16-14.91,41.18s4.97,29.69,14.91,40.99c9.81,11.31,21.74,16.96,35.78,16.96,12.3,0,22.42-3.6,30.37-10.81,8.07-7.2,12.61-16.83,13.6-28.88h-7.45c-.87,9.94-4.66,17.89-11.37,23.85-6.59,5.96-14.97,8.94-25.16,8.94-11.93,0-22.11-4.97-30.56-14.91-8.45-10.06-12.67-22.11-12.67-36.15s4.22-26.09,12.67-36.15c8.45-9.94,18.63-14.91,30.56-14.91Z"/><path class="cls-1" d="m1018.97,350.34c-11.3,0-20.31,3.85-27.02,11.55-6.83,7.83-10.25,18.14-10.25,30.93s3.42,22.36,10.25,29.81c6.71,7.45,15.71,11.18,27.02,11.18s20.19-3.73,27.02-11.18c6.71-7.45,10.06-17.39,10.06-29.81s-3.35-23.11-10.06-30.93c-6.83-7.7-15.84-11.55-27.02-11.55Zm21.62,67.83c-5.47,6.33-12.67,9.5-21.62,9.5s-16.27-3.17-21.61-9.5c-5.47-6.34-8.2-14.78-8.2-25.34s2.73-19.63,8.2-26.09c5.34-6.58,12.54-9.88,21.61-9.88s16.15,3.29,21.62,9.88c5.34,6.46,8.01,15.16,8.01,26.09s-2.67,19.01-8.01,25.34Z"/><rect class="cls-1" x="1074.87" y="421.14" width="10.81" height="11.37"/></g></g></svg>