<?xml version="1.0" encoding="UTF-8"?><svg id="Ebene_2" xmlns="http://www.w3.org/2000/svg" viewBox="0 0 1152.38 562.95"><defs><style>.cls-1{fill:#004225;}</style></defs><g id="Ebene_1-2"><g><path class="cls-1" d="m281.48,0C126.02,0,0,126.02,0,281.48s126.02,281.47,281.48,281.47,281.47-126.02,281.47-281.47S436.93,0,281.48,0Zm-15.3,317.72c8.44,9.94,18.63,14.9,30.56,14.9,10.18,0,18.57-2.98,25.15-8.94,6.71-5.96,10.5-13.91,11.37-23.85h7.45c-.99,12.05-5.53,21.68-13.6,28.88-7.95,7.21-18.08,10.81-30.37,10.81-14.04,0-25.97-5.65-35.78-16.96-9.94-11.3-14.91-24.97-14.91-40.99s4.97-29.75,14.91-41.18c9.81-11.31,21.74-16.96,35.78-16.96,11.55,0,21.3,3.11,29.25,9.32,7.95,6.09,12.86,14.28,14.72,24.59h-7.45c-1.37-7.7-5.53-14.09-12.49-19.19-6.83-5.09-14.84-7.64-24.03-7.64-11.93,0-22.12,4.97-30.56,14.91-8.45,10.06-12.67,22.11-12.67,36.15s4.22,26.08,12.67,36.15Zm151.67,19h-7.45v-52.36c0-6.45-1.93-11.92-5.78-16.4-3.85-4.59-8.51-6.89-13.97-6.89-6.09,0-11.62,2.24-16.59,6.71-5.09,4.35-8.57,10.06-10.43,17.14v51.8h-7.45v-110.49h7.45v46.02c2.48-5.34,6.21-9.63,11.18-12.86,4.84-3.23,10.12-4.84,15.84-4.84,7.45,0,13.85,2.79,19.19,8.38,5.34,5.47,8.01,12.12,8.01,19.94v53.85Zm106.96-79.38h7.45v17.89c2.11-5.71,5.22-10.37,9.32-13.97,4.22-3.48,8.69-5.22,13.41-5.22h4.29v8.57c-.37,0-.81-.12-1.3-.37-.38-.25-.63-.37-.75-.37-5.84,0-11.12,2.48-15.84,7.45-4.72,4.97-7.76,11.24-9.13,18.82v46.58h-7.45v-79.38Zm-31.31,49.01v-49.01h7.46v79.38h-7.46v-13.97c-2.23,4.84-5.84,8.76-10.8,11.74-4.85,2.85-10.25,4.28-16.22,4.28-7.45,0-13.85-2.42-19.19-7.26-5.34-4.85-8.01-10.69-8.01-17.52v-56.65h7.45v56.65c0,5.09,1.93,9.5,5.78,13.23,3.85,3.6,8.51,5.4,13.97,5.4,6.46,0,12.24-2.48,17.33-7.45,5.1-4.97,8.33-11.24,9.69-18.82Z"/><path class="cls-1" d="m604.56,261.82c6.58,0,12.17,1.86,16.77,5.59,4.59,3.73,6.89,8.2,6.89,13.42h7.45c0-7.2-3.04-13.42-9.13-18.63-6.09-5.09-13.42-7.64-21.99-7.64-10.44,0-19.32,4.16-26.65,12.48-7.33,8.32-10.99,18.33-10.99,30s3.66,22.11,10.99,30.56c7.33,8.45,16.21,12.67,26.65,12.67,8.57,0,15.9-2.61,21.99-7.83,6.08-5.22,9.13-11.49,9.13-18.82h-7.83c0,5.34-2.3,9.94-6.89,13.79-4.47,3.85-9.94,5.78-16.4,5.78-8.32,0-15.47-3.54-21.43-10.62-5.84-7.08-8.76-15.59-8.76-25.53s2.92-18.01,8.76-24.97c5.96-6.83,13.1-10.25,21.43-10.25Z"/><path class="cls-1" d="m686.36,254.55c-5.72,0-10.99,1.62-15.84,4.84-4.97,3.23-8.7,7.52-11.18,12.86v-46.03h-7.45v110.5h7.45v-51.8c1.86-7.08,5.34-12.79,10.43-17.14,4.97-4.47,10.5-6.71,16.58-6.71,5.46,0,10.12,2.3,13.97,6.89,3.85,4.47,5.78,9.94,5.78,16.4v52.36h7.45v-53.85c0-7.83-2.67-14.47-8.01-19.94-5.34-5.59-11.74-8.38-19.19-8.38Z"/><path class="cls-1" d="m869.52,286.41h-7.08c0,8.45-2.36,16.03-7.08,22.73l-29.81-36.89c6.58-3.85,11.74-8.26,15.47-13.23,3.85-5.09,5.78-10.12,5.78-15.09,0-5.46-1.93-10.12-5.78-13.97-3.85-3.85-8.51-5.78-13.98-5.78-7.33,0-13.17,1.8-17.52,5.4-4.47,3.6-6.71,8.38-6.71,14.35,0,3.73,1.12,7.89,3.35,12.48,2.24,4.6,5.4,9.38,9.5,14.35-8.7,3.98-15.59,9.07-20.68,15.28-5.09,6.21-7.64,12.48-7.64,18.82,0,9.19,3.48,17.02,10.44,23.48,6.83,6.46,15.15,9.69,24.97,9.69,6.96,0,13.23-1.49,18.82-4.47,5.59-2.86,10.44-7.2,14.53-13.04l12.67,16.21h7.83l-16.4-22.73c6.21-8.82,9.32-18.01,9.32-27.58Zm-56.46-30.37c-1.99-3.97-2.98-7.76-2.98-11.37,0-4.1,1.49-7.64,4.47-10.62,3.1-2.86,6.77-4.29,10.99-4.29,3.85,0,7.2,1.55,10.06,4.66,2.73,2.98,4.1,6.65,4.1,10.99,0,4.1-1.68,8.14-5.03,12.11-3.23,3.98-7.64,7.27-13.23,9.88-3.6-3.6-6.4-7.39-8.38-11.37Zm26.27,71.18c-4.84,3.11-9.88,4.66-15.09,4.66-8.2,0-15.22-2.61-21.06-7.83-5.84-5.34-8.76-11.74-8.76-19.19,0-5.22,2.3-10.43,6.89-15.65,4.59-5.22,10.81-9.62,18.63-13.23l31.12,38.76c-3.11,5.34-7.02,9.5-11.74,12.48Z"/><path class="cls-1" d="m993.99,230.51c9.19,0,17.2,2.55,24.04,7.64,6.96,5.09,11.12,11.49,12.48,19.19h7.45c-1.86-10.31-6.77-18.51-14.72-24.6-7.95-6.21-17.7-9.32-29.25-9.32-14.04,0-25.96,5.65-35.78,16.96-9.94,11.43-14.91,25.16-14.91,41.18s4.97,29.69,14.91,40.99c9.81,11.31,21.74,16.96,35.78,16.96,12.3,0,22.42-3.6,30.37-10.81,8.07-7.2,12.61-16.83,13.6-28.88h-7.45c-.87,9.94-4.66,17.89-11.37,23.85-6.59,5.96-14.97,8.94-25.16,8.94-11.93,0-22.11-4.97-30.56-14.91-8.45-10.06-12.67-22.11-12.67-36.15s4.22-26.09,12.67-36.15c8.45-9.94,18.63-14.91,30.56-14.91Z"/><path class="cls-1" d="m1085.67,254.55c-11.3,0-20.31,3.85-27.02,11.55-6.83,7.83-10.25,18.14-10.25,30.93s3.42,22.36,10.25,29.81c6.71,7.45,15.71,11.18,27.02,11.18s20.19-3.73,27.02-11.18c6.71-7.45,10.06-17.39,10.06-29.81s-3.35-23.11-10.06-30.93c-6.83-7.7-15.84-11.55-27.02-11.55Zm21.62,67.83c-5.47,6.34-12.67,9.5-21.62,9.5s-16.27-3.17-21.61-9.5c-5.47-6.33-8.2-14.78-8.2-25.34s2.73-19.63,8.2-26.09c5.34-6.58,12.54-9.88,21.61-9.88s16.15,3.29,21.62,9.88c5.34,6.46,8.01,15.16,8.01,26.09s-2.67,19.01-8.01,25.34Z"/><rect class="cls-1" x="1141.57" y="325.36" width="10.81" height="11.37"/></g></g></svg>