<?xml version="1.0" encoding="UTF-8"?><svg id="Ebene_2" xmlns="http://www.w3.org/2000/svg" viewBox="0 0 1240.35 540.99"><defs><style>.cls-1{fill:#fff;}.cls-2,.cls-3{font-family:ProximaNova-Medium, 'Proxima Nova';font-size:150px;font-weight:500;}.cls-4{font-family:ProximaNova-Regular, 'Proxima Nova';font-size:300px;}.cls-3{letter-spacing:0em;}</style></defs><g id="Ebene_1-2"><text class="cls-1" transform="translate(174.76 443.49)"><tspan class="cls-4" x="0" y="0">C</tspan><tspan class="cls-2" x="202.8" y="0">hurch &amp; C</tspan><tspan class="cls-3" x="855.29" y="0">o</tspan><tspan class="cls-2" x="940.19" y="0">.</tspan></text><g><polygon class="cls-1" points="292.71 104.46 490.98 323.73 585.43 323.73 292.71 0 0 323.73 94.45 323.73 292.71 104.46"/><path class="cls-1" d="m1195.43,232.26h0s-704.45,0-704.45,0v19.5h694.48c3.5,0,6.34,2.23,6.34,4.99h0c0,2.75-2.84,4.99-6.34,4.99H490.98v62h328.76l12.52-24.12h38.85l12.52,24.12h49.81l12.52-24.12h38.85l12.52,24.12h49.81l12.52-24.12h38.85l12.52,24.12h84.38s44.92-45.74,44.92-45.74l-44.92-45.74Z"/><rect class="cls-1" x="117.89" y="76.51" width="80.99" height="121.79"/></g></g></svg>